<svg xmlns="http://www.w3.org/2000/svg" xmlns:xlink="http://www.w3.org/1999/xlink" version="1.1" id="Your_Icon" x="0px" y="0px" width="100px" height="100px" viewBox="0 0 100 100" enable-background="new 0 0 100 100" xml:space="preserve">
<g id="Shape_3_copy_7">
	<g>
		<path d="M82.786,58.18V30.407c0-9.897-8.021-17.92-17.919-17.92H35.133c-9.897,0-17.92,8.022-17.92,17.92V58.18    c0,9.896,8.023,17.92,17.92,17.92h19.364l16.824,13.414L67.185,76.1h1.287C76.072,76.1,82.786,68.076,82.786,58.18z M60.009,26.42    c3.326,0,6.023,3.309,6.023,7.392c0,4.081-2.697,7.393-6.023,7.393s-6.022-3.312-6.022-7.393    C53.986,29.729,56.683,26.42,60.009,26.42z M40.604,26.702c3.327,0,6.022,3.312,6.022,7.392c0,4.083-2.695,7.392-6.022,7.392    c-3.327,0-6.022-3.308-6.022-7.392C34.582,30.014,37.277,26.702,40.604,26.702z M61.213,60.13    c-2.836,4.681-10.783,8.373-17.379-0.069c0,0-8.099-8.908-11.959-11.042c-1.265,0.825-2.458,0.778-2.587,0.731    c3.078-0.966,3.784-4.822,3.784-4.822s0.295,1.301-0.8,3.748c28.001,10.358,37.627-3.536,37.843-3.853    C66.894,52.03,61.17,60.05,61.213,60.13z"/>
	</g>
</g>
</svg>